grf
version=1
nRows=17
nColumns=37
inDegrees=no
endheader
time	ground_force_1_vx	ground_force_1_vy	ground_force_1_vz	ground_force_1_px	ground_force_1_py	ground_force_1_pz	ground_moment_1_mx	ground_moment_1_my	ground_moment_1_mz	ground_force_2_vx	ground_force_2_vy	ground_force_2_vz	ground_force_2_px	ground_force_2_py	ground_force_2_pz	ground_moment_2_mx	ground_moment_2_my	ground_moment_2_mz	ground_force_3_vx	ground_force_3_vy	ground_force_3_vz	ground_force_3_px	ground_force_3_py	ground_force_3_pz	ground_moment_3_mx	ground_moment_3_my	ground_moment_3_mz	ground_force_4_vx	ground_force_4_vy	ground_force_4_vz	ground_force_4_px	ground_force_4_py	ground_force_4_pz	ground_moment_4_mx	ground_moment_4_my	ground_moment_4_mz
      5.23000000	      0.00000000	     -0.00000000	      0.00000000	      0.00000000	      0.00000000	      0.00000000	      0.00000000	      0.00000000	      0.00000000	      2.54313588	     34.87258911	   -396.17834473	   -268.16501407	  -1133.98344936	      0.00000000	      0.00000000	      0.00000000	   3775.63507191	      6.74193811	    -38.22126829	   -422.99673462	   -254.71934129	   -648.68840979	      0.00000000	      0.00000000	     -0.00000000	  -3336.59806176	      0.00000000	     -0.00000000	      0.00000000	      0.00000000	      0.00000000	      0.00000000	      0.00000000	      0.00000000	      0.00000000
      5.24000000	      0.00000000	     -0.00000000	      0.00000000	      0.00000000	      0.00000000	      0.00000000	      0.00000000	      0.00000000	      0.00000000	      2.31800342	     34.89418793	   -397.68353271	   -267.57384800	  -1133.86534921	      0.00000000	      0.00000000	      0.00000000	   3786.08315578	      7.09709025	    -38.06665101	   -421.33712769	   -254.46071152	   -650.46588558	      0.00000000	      0.00000000	     -0.00000000	  -3409.29662263	      0.00000000	     -0.00000000	      0.00000000	      0.00000000	      0.00000000	      0.00000000	      0.00000000	      0.00000000	      0.00000000
      5.25000000	      0.00000000	     -0.00000000	      0.00000000	      0.00000000	      0.00000000	      0.00000000	      0.00000000	      0.00000000	      0.00000000	      2.09693503	     35.24961090	   -397.86297607	   -268.14183196	  -1134.58822119	      0.00000000	      0.00000000	      0.00000000	   3803.64886267	      7.29634096	    -38.02319018	   -424.48339844	   -255.35455911	   -648.97924107	      0.00000000	      0.00000000	     -0.00000000	  -3422.15722196	      0.00000000	     -0.00000000	      0.00000000	      0.00000000	      0.00000000	      0.00000000	      0.00000000	      0.00000000	      0.00000000
      5.26000000	      0.00000000	     -0.00000000	      0.00000000	      0.00000000	      0.00000000	      0.00000000	      0.00000000	      0.00000000	      0.00000000	      0.93488479	     35.45192337	   -395.73092651	   -268.44227396	  -1133.48185703	      0.00000000	      0.00000000	      0.00000000	   3594.31987599	      6.87401725	    -38.04403747	   -423.78628540	   -254.47533900	   -649.65665384	      0.00000000	      0.00000000	     -0.00000000	  -3419.72793659	      0.00000000	     -0.00000000	      0.00000000	      0.00000000	      0.00000000	      0.00000000	      0.00000000	      0.00000000	      0.00000000
      5.27000000	      0.00000000	     -0.00000000	      0.00000000	      0.00000000	      0.00000000	      0.00000000	      0.00000000	      0.00000000	      0.00000000	      1.02362931	     36.27302551	   -396.00753784	   -267.89751714	  -1133.59605352	      0.00000000	      0.00000000	      0.00000000	   3655.67769181	      6.74201632	    -38.13314115	   -422.55975342	   -254.94822063	   -650.09189761	      0.00000000	      0.00000000	     -0.00000000	  -3559.27279761	      0.00000000	     -0.00000000	      0.00000000	      0.00000000	      0.00000000	      0.00000000	      0.00000000	      0.00000000	      0.00000000
      5.28000000	      0.00000000	     -0.00000000	      0.00000000	      0.00000000	      0.00000000	      0.00000000	      0.00000000	      0.00000000	      0.00000000	      0.28949186	     36.70342255	   -396.79418945	   -267.61752301	  -1133.91453784	      0.00000000	      0.00000000	      0.00000000	   3891.19224631	      5.78932000	    -38.06790212	   -424.48233032	   -255.00113502	   -649.45519224	      0.00000000	      0.00000000	     -0.00000000	  -3392.14554462	      0.00000000	     -0.00000000	      0.00000000	      0.00000000	      0.00000000	      0.00000000	      0.00000000	      0.00000000	      0.00000000
      5.29000000	      0.00000000	     -0.00000000	      0.00000000	      0.00000000	      0.00000000	      0.00000000	      0.00000000	      0.00000000	      0.00000000	      0.13480951	     36.81284332	   -395.12203979	   -267.16895731	  -1134.35277426	      0.00000000	      0.00000000	      0.00000000	   3690.29348184	      5.05946401	    -37.84658095	   -424.47674561	   -254.06664507	   -649.97238384	      0.00000000	      0.00000000	     -0.00000000	  -3557.76770137	      0.00000000	     -0.00000000	      0.00000000	      0.00000000	      0.00000000	      0.00000000	      0.00000000	      0.00000000	      0.00000000
      5.30000000	      0.00000000	     -0.00000000	      0.00000000	      0.00000000	      0.00000000	      0.00000000	      0.00000000	      0.00000000	      0.00000000	      0.13496485	     36.45433807	   -396.43991089	   -266.60844246	  -1133.89297253	      0.00000000	      0.00000000	      0.00000000	   3804.06789409	      3.63892414	    -38.02337678	   -426.93392944	   -253.96554150	   -649.11387830	      0.00000000	      0.00000000	     -0.00000000	  -3430.25383861	      0.00000000	     -0.00000000	      0.00000000	      0.00000000	      0.00000000	      0.00000000	      0.00000000	      0.00000000	      0.00000000
      5.31000000	      0.00000000	     -0.00000000	      0.00000000	      0.00000000	      0.00000000	      0.00000000	      0.00000000	      0.00000000	      0.00000000	     -0.28676030	     35.96285248	   -397.57473755	   -267.25182110	  -1133.56195166	      0.00000000	      0.00000000	     -0.00000000	   3929.47732467	      2.90375612	    -38.39836146	   -429.20059204	   -254.57874301	   -649.88803789	      0.00000000	      0.00000000	     -0.00000000	  -3509.18999274	      0.00000000	     -0.00000000	      0.00000000	      0.00000000	      0.00000000	      0.00000000	      0.00000000	      0.00000000	      0.00000000
      5.32000000	      0.00000000	     -0.00000000	      0.00000000	      0.00000000	      0.00000000	      0.00000000	      0.00000000	      0.00000000	      0.00000000	     -0.47334230	     35.90082932	   -400.79632568	   -267.67377445	  -1133.71526884	      0.00000000	      0.00000000	      0.00000000	   3940.73468688	      3.01849720	    -38.52975490	   -432.06134033	   -254.01565692	   -649.84172730	      0.00000000	      0.00000000	     -0.00000000	  -3437.02214371	      0.00000000	     -0.00000000	      0.00000000	      0.00000000	      0.00000000	      0.00000000	      0.00000000	      0.00000000	      0.00000000
      5.33000000	      0.00000000	     -0.00000000	      0.00000000	      0.00000000	      0.00000000	      0.00000000	      0.00000000	      0.00000000	      0.00000000	     -0.55988449	     35.67058563	   -405.26788330	   -268.18387481	  -1133.78453153	      0.00000000	      0.00000000	      0.00000000	   3780.99730573	      3.63971321	    -39.01418718	   -438.71411133	   -254.86722583	   -649.85573912	      0.00000000	      0.00000000	     -0.00000000	  -3453.19038385	      0.00000000	     -0.00000000	      0.00000000	      0.00000000	      0.00000000	      0.00000000	      0.00000000	      0.00000000	      0.00000000
      5.34000000	      0.00000000	     -0.00000000	      0.00000000	      0.00000000	      0.00000000	      0.00000000	      0.00000000	      0.00000000	      0.00000000	      0.20322400	     35.82709503	   -414.45007324	   -269.09182472	  -1134.22190992	      0.00000000	      0.00000000	      0.00000000	   3953.09842132	      4.78756360	    -40.46991390	   -447.16763306	   -255.01359370	   -650.29724973	      0.00000000	      0.00000000	     -0.00000000	  -3490.52537922	      0.00000000	     -0.00000000	      0.00000000	      0.00000000	      0.00000000	      0.00000000	      0.00000000	      0.00000000	      0.00000000
      5.35000000	      0.00000000	     -0.00000000	      0.00000000	      0.00000000	      0.00000000	      0.00000000	      0.00000000	      0.00000000	      0.00000000	      0.75282258	     36.29744720	   -424.05557251	   -268.98739638	  -1132.93059384	      0.00000000	      0.00000000	      0.00000000	   3696.17380028	      5.58565153	    -42.17205478	   -455.54635620	   -254.24161776	   -650.16097625	      0.00000000	      0.00000000	     -0.00000000	  -3496.32936236	      0.00000000	     -0.00000000	      0.00000000	      0.00000000	      0.00000000	      0.00000000	      0.00000000	      0.00000000	      0.00000000
      5.36000000	      0.00000000	     -0.00000000	      0.00000000	      0.00000000	      0.00000000	      0.00000000	      0.00000000	      0.00000000	      0.00000000	      1.67366302	     37.76997375	   -435.21746826	   -269.13480669	  -1133.98053054	      0.00000000	      0.00000000	      0.00000000	   3864.40183355	      5.78753956	    -42.78021672	   -466.02026367	   -253.34233446	   -650.92876684	      0.00000000	      0.00000000	     -0.00000000	  -3491.40208809	      0.00000000	     -0.00000000	      0.00000000	      0.00000000	      0.00000000	      0.00000000	      0.00000000	      0.00000000	      0.00000000
      5.37000000	      0.00000000	     -0.00000000	      0.00000000	      0.00000000	      0.00000000	      0.00000000	      0.00000000	      0.00000000	      0.00000000	      2.43406534	     38.81834030	   -447.95190430	   -269.13849110	  -1132.94459048	      0.00000000	      0.00000000	      0.00000000	   3890.51563069	      6.34460822	    -44.64126261	   -481.11685181	   -252.35012559	   -650.89235485	      0.00000000	      0.00000000	     -0.00000000	  -3543.33897878	      0.00000000	     -0.00000000	      0.00000000	      0.00000000	      0.00000000	      0.00000000	      0.00000000	      0.00000000	      0.00000000
      5.38000000	      0.00000000	     -0.00000000	      0.00000000	      0.00000000	      0.00000000	      0.00000000	      0.00000000	      0.00000000	      0.00000000	      3.61964941	     40.34165573	   -466.01220703	   -269.20991877	  -1132.38852234	      0.00000000	      0.00000000	      0.00000000	   3733.34641236	      6.43347347	    -44.98072490	   -496.99435425	   -251.07362939	   -650.37350782	      0.00000000	      0.00000000	     -0.00000000	  -3642.19387373	      0.00000000	     -0.00000000	      0.00000000	      0.00000000	      0.00000000	      0.00000000	      0.00000000	      0.00000000	      0.00000000
      5.39000000	      0.00000000	     -0.00000000	      0.00000000	      0.00000000	      0.00000000	      0.00000000	      0.00000000	      0.00000000	      0.00000000	      4.17641163	     43.22359085	   -482.94589233	   -267.87785333	  -1133.32028659	      0.00000000	      0.00000000	      0.00000000	   3514.69898909	      6.23089622	    -46.50342614	   -511.20867920	   -250.08128627	   -650.44667574	      0.00000000	      0.00000000	     -0.00000000	  -3709.48137375	      0.00000000	     -0.00000000	      0.00000000	      0.00000000	      0.00000000	      0.00000000	      0.00000000	      0.00000000	      0.00000000
